# Blender v3.1.2 OBJ File: 'PlayerTank.blend'
# www.blender.org
mtllib HealthPickup.mtl
o HealthPickup_Plane.004
v -0.114935 0.705315 0.120523
v -0.114935 0.041764 0.120523
v -0.114935 0.705315 -0.120523
v -0.114935 0.041764 -0.120523
v -0.114935 0.492124 0.331579
v -0.114935 0.254956 0.331579
v -0.114935 0.254956 0.120523
v -0.114935 0.492124 0.120523
v -0.114935 0.492124 -0.120523
v -0.114935 0.254956 -0.120523
v -0.114935 0.492124 -0.331579
v -0.114935 0.254956 -0.331579
v 0.114935 0.705315 -0.120523
v 0.114935 0.705315 0.120523
v 0.114935 0.254956 0.331579
v 0.114935 0.254956 0.120523
v 0.114935 0.041764 0.120523
v 0.114935 0.041764 -0.120523
v 0.114935 0.254956 -0.331579
v 0.114935 0.492124 -0.331579
v 0.114935 0.254956 -0.120523
v 0.114935 0.492124 0.331579
v 0.114935 0.492124 -0.120523
v 0.114935 0.492124 0.120523
vt 0.298992 0.409714
vt 0.312531 0.205756
vt 0.407803 0.301993
vt 0.108447 0.407796
vt 0.097732 0.206417
vt 0.203720 0.313477
vt 0.206543 0.098696
vt 0.111270 0.002459
vt 0.301816 0.004378
vt 0.613982 0.313477
vt 0.818066 0.301993
vt 0.709255 0.409714
vt 0.616806 0.098696
vt 0.818066 0.111438
vt 0.722793 0.205756
vt 0.507995 0.206417
vt 0.412722 0.110180
vt 0.412722 0.300736
vt 0.941643 0.565566
vt 0.807581 0.711580
vt 0.807581 0.565566
vt 0.792067 0.728233
vt 0.656648 0.874247
vt 0.656648 0.728233
vt 0.957048 0.002459
vt 0.822985 0.148473
vt 0.822985 0.002459
vt 0.807581 0.560647
vt 0.941643 0.414633
vt 0.941643 0.560647
vt 0.802662 0.723314
vt 0.656648 0.572665
vt 0.802662 0.572665
vt 0.641134 0.730697
vt 0.505715 0.876711
vt 0.505715 0.730697
vt 0.505715 0.572665
vt 0.651729 0.725778
vt 0.505715 0.725778
vt 0.822985 0.299406
vt 0.957048 0.153392
vt 0.957048 0.299406
vt 0.932406 0.728233
vt 0.796986 0.874247
vt 0.796986 0.728233
vt 0.802662 0.565282
vt 0.656648 0.414633
vt 0.802662 0.414633
vt 0.651729 0.567746
vt 0.505715 0.414633
vt 0.651729 0.414633
vt 0.254087 0.881220
vt 0.389507 0.735206
vt 0.389507 0.881220
vt 0.002459 0.300736
vt 0.002459 0.110180
vt 0.407803 0.111438
vt 0.712079 0.004378
vt 0.521533 0.002459
vt 0.518710 0.407796
vt 0.941643 0.711580
vt 0.792067 0.874247
vt 0.957048 0.148473
vt 0.807581 0.414633
vt 0.656648 0.723314
vt 0.641134 0.876711
vt 0.651729 0.572665
vt 0.822985 0.153392
vt 0.932406 0.874247
vt 0.656648 0.565282
vt 0.505715 0.567746
vt 0.254087 0.735206
vn -1.0000 0.0000 0.0000
vn 1.0000 0.0000 0.0000
vn -0.0000 -1.0000 0.0000
vn 0.0000 0.0000 1.0000
vn 0.0000 1.0000 0.0000
vn -0.0000 0.0000 -1.0000
usemtl Pickups
s off
f 3/1/1 8/2/1 1/3/1
f 11/4/1 10/5/1 9/6/1
f 8/2/1 10/5/1 7/7/1
f 10/5/1 2/8/1 7/7/1
f 6/9/1 8/2/1 7/7/1
f 24/10/2 13/11/2 14/12/2
f 21/13/2 20/14/2 23/15/2
f 21/13/2 24/10/2 16/16/2
f 17/17/2 21/13/2 16/16/2
f 24/10/2 15/18/2 16/16/2
f 12/19/3 21/20/3 10/21/3
f 2/22/4 16/23/4 7/24/4
f 7/25/3 15/26/3 6/27/3
f 5/28/5 24/29/5 8/30/5
f 6/31/4 22/32/4 5/33/4
f 10/34/6 18/35/6 4/36/6
f 4/37/3 17/38/3 2/39/3
f 9/40/5 20/41/5 11/42/5
f 8/43/4 14/44/4 1/45/4
f 11/46/6 19/47/6 12/48/6
f 1/49/5 13/50/5 3/51/5
f 3/52/6 23/53/6 9/54/6
f 3/1/1 9/6/1 8/2/1
f 11/4/1 12/55/1 10/5/1
f 8/2/1 9/6/1 10/5/1
f 10/5/1 4/56/1 2/8/1
f 6/9/1 5/57/1 8/2/1
f 24/10/2 23/15/2 13/11/2
f 21/13/2 19/58/2 20/14/2
f 21/13/2 23/15/2 24/10/2
f 17/17/2 18/59/2 21/13/2
f 24/10/2 22/60/2 15/18/2
f 12/19/3 19/61/3 21/20/3
f 2/22/4 17/62/4 16/23/4
f 7/25/3 16/63/3 15/26/3
f 5/28/5 22/64/5 24/29/5
f 6/31/4 15/65/4 22/32/4
f 10/34/6 21/66/6 18/35/6
f 4/37/3 18/67/3 17/38/3
f 9/40/5 23/68/5 20/41/5
f 8/43/4 24/69/4 14/44/4
f 11/46/6 20/70/6 19/47/6
f 1/49/5 14/71/5 13/50/5
f 3/52/6 13/72/6 23/53/6
